<?xml version="1.0" encoding="utf-8"?>
<!-- Generator: Adobe Illustrator 27.5.0, SVG Export Plug-In . SVG Version: 6.00 Build 0)  -->
<svg version="1.1" xmlns="http://www.w3.org/2000/svg" xmlns:xlink="http://www.w3.org/1999/xlink" x="0px" y="0px"
	 viewBox="0 0 500 500" style="enable-background:new 0 0 500 500;" xml:space="preserve">
<g id="BACKGROUND">
	<g>
		<g>
			<g>
				<rect y="-0.005" style="fill:#FFFFFF;" width="500" height="500"/>
			</g>
		</g>
	</g>
</g>
<g id="OBJECTS">
	<g>
		<g>
			<g>
				<path style="fill-rule:evenodd;clip-rule:evenodd;fill:#E4F2FF;" d="M72.5,400.553c32.645,12.575,21.564,24.21,27.003,42.721
					h327.546c10.932-66.732-63.695-83.688,0.514-133.11c71.908-55.347,30.505-159.851-36.294-174.762
					c-66.799-14.911-39.572-39.589-112.839-66.183c-73.267-26.594-173.215,43.459-149.941,91.966
					c23.274,48.508,12.852,101.579-53.107,119.068C16.351,295.906,27.038,383.04,72.5,400.553z"/>
				<path style="fill-rule:evenodd;clip-rule:evenodd;fill:#E4F2FF;" d="M440.951,377.901c0,0-26.295-10.135-14.738-29.356
					c11.557-19.221,34.419-14.98,38.597,2.683C468.989,368.89,460.562,378.48,440.951,377.901z"/>
				<path style="fill-rule:evenodd;clip-rule:evenodd;fill:#E4F2FF;" d="M92.845,182.605c0,0-51.163,21.18-55.396-23.4
					s34.547-45.062,44.346-42.227C91.593,119.814,130.42,143.561,92.845,182.605z"/>
			</g>
			<g>
				
					<text transform="matrix(1 -0.0015 0.0015 1 311.7972 203.7064)" style="fill:#FFFFFF;stroke:#2E4ECC;stroke-miterlimit:10; font-family:'Quicksand-Bold'; font-size:178.5495px; letter-spacing:3;">?</text>
				
					<text transform="matrix(0.9977 0.0672 -0.0672 0.9977 398.4749 320.634)" style="fill:#FFFFFF;stroke:#92CDFE;stroke-miterlimit:10; font-family:'Quicksand-Bold'; font-size:94.9528px; letter-spacing:1;">?</text>
				
					<text transform="matrix(0.9351 -0.3545 0.3545 0.9351 67.2963 233.9475)" style="fill:none;stroke:#92CDFE;stroke-miterlimit:10; font-family:'Quicksand-Bold'; font-size:121.1119px; letter-spacing:2;">?</text>
				
					<text transform="matrix(0.9999 0.0112 -0.0112 0.9999 122.1095 118.6186)" style="fill:none;stroke:#92CDFE;stroke-miterlimit:10; font-family:'Quicksand-Bold'; font-size:73.7551px; letter-spacing:1;">?</text>
				
					<text transform="matrix(0.9915 0.1299 -0.1299 0.9915 404.6743 193.3583)" style="fill:none;stroke:#92CDFE;stroke-miterlimit:10; font-family:'Quicksand-Bold'; font-size:74.6239px; letter-spacing:1;">?</text>
			</g>
			<g>
				<path style="fill-rule:evenodd;clip-rule:evenodd;fill:#92CDFE;" d="M284.046,281.193c1.953,1.018,3.735,2.282,5.315,3.744
					l5.679-2.022l5.337,8.425l-4.253,4.272c0.647,2.052,1.03,4.204,1.116,6.406l5.443,2.585l-2.184,9.731l-6.025,0.013
					c-1.017,1.954-2.282,3.736-3.745,5.315l2.021,5.679l-8.423,5.337l-4.272-4.253c-2.052,0.647-4.204,1.029-6.406,1.114
					l-2.584,5.443l-9.732-2.182l-0.013-6.026c-1.954-1.017-3.736-2.282-5.315-3.745l-5.68,2.022l-5.337-8.425l4.254-4.272
					c-0.648-2.052-1.029-4.204-1.116-6.405l-5.442-2.585l2.182-9.732l6.025-0.013c1.016-1.954,2.282-3.737,3.745-5.316l-2.022-5.679
					l8.424-5.337l4.272,4.254c2.052-0.648,4.204-1.03,6.406-1.115l2.585-5.443l9.731,2.183L284.046,281.193L284.046,281.193z
					 M275.466,292.644c-5.765-1.293-11.488,2.332-12.781,8.098c-1.293,5.766,2.333,11.487,8.098,12.781
					c5.766,1.293,11.488-2.332,12.781-8.098C284.856,299.659,281.232,293.937,275.466,292.644z"/>
				<path style="fill-rule:evenodd;clip-rule:evenodd;fill:none;stroke:#92CDFE;stroke-miterlimit:10;" d="M393.634,212.587
					c1.586,0.826,3.033,1.853,4.316,3.04l4.611-1.642l4.334,6.841l-3.453,3.468c0.526,1.666,0.837,3.414,0.906,5.201l4.42,2.099
					l-1.773,7.902l-4.893,0.011c-0.826,1.587-1.853,3.034-3.041,4.316l1.641,4.611l-6.84,4.334l-3.469-3.453
					c-1.666,0.526-3.413,0.835-5.202,0.905l-2.098,4.42l-7.903-1.772l-0.01-4.893c-1.587-0.826-3.033-1.853-4.315-3.041
					l-4.612,1.641l-4.334-6.841l3.454-3.469c-0.526-1.666-0.835-3.414-0.906-5.201l-4.419-2.099l1.772-7.902l4.892-0.01
					c0.826-1.587,1.853-3.034,3.041-4.316l-1.642-4.611l6.84-4.334l3.469,3.454c1.666-0.526,3.413-0.836,5.202-0.906l2.098-4.419
					l7.902,1.772L393.634,212.587L393.634,212.587z M386.668,221.885c-4.681-1.05-9.328,1.893-10.378,6.575
					c-1.05,4.681,1.894,9.328,6.575,10.378c4.682,1.05,9.328-1.894,10.378-6.575C394.293,227.581,391.35,222.935,386.668,221.885z"
					/>
				<path style="fill-rule:evenodd;clip-rule:evenodd;fill:none;stroke:#92CDFE;stroke-miterlimit:10;" d="M448.106,325.065
					c0.754,0.393,1.442,0.881,2.051,1.445l2.191-0.78l2.06,3.251l-1.641,1.648c0.25,0.792,0.397,1.622,0.431,2.472l2.101,0.997
					l-0.843,3.755l-2.325,0.005c-0.392,0.754-0.881,1.442-1.445,2.051l0.78,2.192l-3.251,2.06l-1.649-1.641
					c-0.792,0.25-1.622,0.397-2.472,0.43l-0.997,2.101l-3.756-0.842l-0.005-2.325c-0.754-0.392-1.441-0.881-2.051-1.445l-2.192,0.78
					l-2.06-3.251l1.642-1.648c-0.25-0.792-0.397-1.622-0.431-2.472l-2.1-0.997l0.842-3.756l2.325-0.005
					c0.392-0.754,0.881-1.442,1.445-2.051l-0.78-2.192l3.251-2.06l1.649,1.641c0.792-0.25,1.622-0.397,2.472-0.43l0.997-2.1
					l3.755,0.842L448.106,325.065L448.106,325.065z M444.795,329.484c-2.225-0.499-4.433,0.9-4.932,3.125
					c-0.499,2.225,0.9,4.433,3.125,4.932c2.225,0.499,4.433-0.9,4.932-3.125C448.419,332.191,447.02,329.983,444.795,329.484z"/>
				<path style="fill-rule:evenodd;clip-rule:evenodd;fill:none;stroke:#92CDFE;stroke-miterlimit:10;" d="M71.272,360.685
					c1.545,0.805,2.955,1.806,4.205,2.962l4.493-1.599l4.223,6.666l-3.365,3.38c0.512,1.624,0.815,3.326,0.883,5.068l4.307,2.045
					l-1.728,7.699l-4.767,0.011c-0.805,1.546-1.806,2.956-2.963,4.205l1.599,4.493l-6.665,4.223l-3.38-3.365
					c-1.624,0.512-3.326,0.814-5.068,0.882l-2.045,4.307l-7.701-1.727l-0.01-4.768c-1.546-0.804-2.955-1.806-4.205-2.963l-4.494,1.6
					l-4.223-6.666l3.366-3.38c-0.512-1.624-0.814-3.326-0.883-5.068l-4.306-2.045l1.727-7.7l4.767-0.01
					c0.804-1.546,1.806-2.957,2.963-4.206l-1.6-4.494l6.665-4.223l3.38,3.365c1.624-0.512,3.326-0.815,5.069-0.882l2.045-4.306
					l7.699,1.727L71.272,360.685L71.272,360.685z M64.484,369.745c-4.561-1.023-9.089,1.845-10.112,6.407
					c-1.023,4.562,1.846,9.089,6.407,10.112c4.562,1.023,9.089-1.845,10.113-6.407C71.914,375.295,69.046,370.768,64.484,369.745z"
					/>
			</g>
		</g>
		<g>
			<g>
				<path style="fill:#161522;" d="M144.964,321.853c0,0-33.782,80.426-27.785,121.89l159.018-0.007
					c0,0-15.774-103.209-33.453-127.932S144.964,321.853,144.964,321.853z"/>
				<g>
					<g>
						<path style="fill:#2E4ECC;" d="M197.844,193.186c0,0,27.354,13.867,55.018,10.249c27.665-3.617-2.901-28.174-9.118-40.895
							c-4.439-9.083,0.829-32.908,29.426-28.556c28.597,4.352,52.775,40.656,56.786,67.243c3.801,25.193-16.6,61.837-87.197,71.999
							l-49.094-54.902L197.844,193.186z"/>
						<g>
							<g>
								<path style="fill:#FFFFFF;" d="M264.091,224.654c-4.664,0-8.458-3.795-8.458-8.459c0-4.664,3.794-8.458,8.458-8.458
									c4.664,0,8.458,3.794,8.458,8.458C272.549,220.859,268.755,224.654,264.091,224.654z M264.091,208.691
									c-4.138,0-7.504,3.366-7.504,7.504c0,4.138,3.366,7.505,7.504,7.505c4.138,0,7.504-3.366,7.504-7.505
									C271.595,212.057,268.229,208.691,264.091,208.691z"/>
							</g>
							<g>
								<path style="fill:#FFFFFF;" d="M259.835,254.548c-4.222,0-7.656-3.434-7.656-7.656c0-4.222,3.434-7.657,7.656-7.657
									c4.222,0,7.656,3.435,7.656,7.657C267.491,251.113,264.056,254.548,259.835,254.548z M259.835,240.189
									c-3.695,0-6.702,3.007-6.702,6.702c0,3.695,3.007,6.702,6.702,6.702c3.695,0,6.702-3.007,6.702-6.702
									C266.537,243.196,263.53,240.189,259.835,240.189z"/>
							</g>
							<g>
								<path style="fill:#FFFFFF;" d="M294.233,219.878c-4.484,0-8.133-3.649-8.133-8.134c0-4.485,3.649-8.134,8.133-8.134
									c4.485,0,8.134,3.649,8.134,8.134C302.367,216.23,298.718,219.878,294.233,219.878z M294.233,204.564
									c-3.959,0-7.179,3.221-7.179,7.18s3.22,7.18,7.179,7.18c3.959,0,7.18-3.221,7.18-7.18S298.192,204.564,294.233,204.564z"/>
							</g>
							<g>
								<path style="fill:#FFFFFF;" d="M306.449,185.463c-2.948,0-5.347-2.399-5.347-5.347c0-2.948,2.399-5.347,5.347-5.347
									c2.948,0,5.346,2.399,5.346,5.347C311.795,183.064,309.397,185.463,306.449,185.463z M306.449,175.724
									c-2.422,0-4.393,1.971-4.393,4.393c0,2.422,1.971,4.393,4.393,4.393c2.422,0,4.392-1.971,4.392-4.393
									C310.841,177.694,308.87,175.724,306.449,175.724z"/>
							</g>
							<g>
								<path style="fill:#FFFFFF;" d="M281.254,194.272c-1.92,0-3.482-1.562-3.482-3.482c0-1.92,1.562-3.482,3.482-3.482
									c1.92,0,3.482,1.562,3.482,3.482C284.736,192.71,283.175,194.272,281.254,194.272z M281.254,188.262
									c-1.394,0-2.528,1.134-2.528,2.528c0,1.394,1.134,2.528,2.528,2.528s2.528-1.134,2.528-2.528
									C283.782,189.396,282.648,188.262,281.254,188.262z"/>
							</g>
							<g>
								<path style="fill:#FFFFFF;" d="M275.077,151.706c-1.92,0-3.482-1.562-3.482-3.482c0-1.92,1.562-3.482,3.482-3.482
									c1.92,0,3.482,1.562,3.482,3.482C278.559,150.143,276.997,151.706,275.077,151.706z M275.077,145.696
									c-1.394,0-2.528,1.134-2.528,2.527c0,1.394,1.134,2.528,2.528,2.528s2.528-1.134,2.528-2.528
									C277.605,146.83,276.471,145.696,275.077,145.696z"/>
							</g>
							<g>
								<path style="fill:#FFFFFF;" d="M284.259,178.336c-4.486,0-8.137-3.65-8.137-8.136c0-4.486,3.651-8.136,8.137-8.136
									c4.486,0,8.136,3.65,8.136,8.136C292.395,174.687,288.746,178.336,284.259,178.336z M284.259,163.018
									c-3.961,0-7.183,3.222-7.183,7.182c0,3.96,3.222,7.182,7.183,7.182c3.96,0,7.182-3.222,7.182-7.182
									C291.441,166.24,288.219,163.018,284.259,163.018z"/>
							</g>
							<path style="fill:#FFFFFF;" d="M307.602,155.428c-1.36,1.098-3.087,1.759-4.967,1.759c-4.37,0-7.924-3.555-7.924-7.924
								c0-1.748,0.576-3.361,1.539-4.673c-0.251-0.195-0.504-0.387-0.758-0.578c-1.086,1.472-1.736,3.285-1.736,5.25
								c0,4.895,3.983,8.878,8.879,8.878c2.118,0,4.064-0.748,5.591-1.99C308.019,155.908,307.811,155.668,307.602,155.428z"/>
							<path style="fill:#FFFFFF;" d="M249.579,171.131c1.819-1.378,4.077-2.206,6.53-2.206c5.981,0,10.846,4.866,10.846,10.847
								c0,3.686-1.851,6.943-4.669,8.904c0.15,0.293,0.291,0.583,0.427,0.871c3.133-2.124,5.197-5.713,5.197-9.775
								c0-6.507-5.293-11.801-11.801-11.801c-2.674,0-5.134,0.904-7.115,2.408C249.187,170.628,249.382,170.878,249.579,171.131z"/>
							<path style="fill:#FFFFFF;" d="M266.538,138.814c2.865,0,5.23-2.18,5.526-4.968c-0.324-0.042-0.651-0.087-0.969-0.121
								c-0.239,2.316-2.179,4.135-4.556,4.135c-2.361,0-4.29-1.792-4.552-4.084c-0.325,0.045-0.647,0.092-0.963,0.146
								C261.354,136.673,263.699,138.814,266.538,138.814z"/>
							<path style="fill:#FFFFFF;" d="M249.212,159.368c4.956,0,8.989-4.032,8.989-8.989c0-4.956-4.033-8.988-8.989-8.988
								c-0.667,0-1.315,0.079-1.941,0.217c-0.342,0.422-0.666,0.852-0.969,1.291c0.904-0.353,1.883-0.554,2.91-0.554
								c4.43,0,8.034,3.604,8.034,8.034c0,4.43-3.604,8.035-8.034,8.035c-2.881,0-5.406-1.53-6.824-3.816
								c-0.026,0.537-0.038,1.069-0.025,1.588C244.013,158.13,246.469,159.368,249.212,159.368z"/>
							<path style="fill:#FFFFFF;" d="M244.32,265.754c-2.342,0-4.456,0.98-5.965,2.546l0.638,0.714
								c1.339-1.416,3.229-2.306,5.327-2.306c3.269,0,6.044,2.15,6.989,5.11c0.314-0.058,0.633-0.113,0.945-0.172
								C251.222,268.241,248.057,265.754,244.32,265.754z"/>
							<path style="fill:#FFFFFF;" d="M298.186,241.873c-6.665,0-12.087,5.422-12.087,12.087c0,2.45,0.737,4.728,1.994,6.634
								c0.29-0.134,0.585-0.267,0.872-0.402c-1.207-1.78-1.913-3.925-1.913-6.232c0-6.139,4.994-11.133,11.133-11.133
								c4.176,0,7.819,2.314,9.723,5.725c0.25-0.201,0.503-0.4,0.749-0.602C306.569,244.325,302.662,241.873,298.186,241.873z"/>
							<path style="fill:#FFFFFF;" d="M326.687,208.252c-4.679,0-8.485-3.807-8.485-8.486c0-4.679,3.806-8.485,8.485-8.485
								c0.334,0,0.661,0.024,0.985,0.062c-0.099-0.327-0.202-0.654-0.306-0.982c-0.225-0.016-0.45-0.034-0.679-0.034
								c-5.205,0-9.439,4.235-9.439,9.439c0,5.205,4.235,9.44,9.439,9.44c1.305,0,2.549-0.267,3.681-0.748
								c0.012-0.357,0.019-0.714,0.022-1.068C329.27,207.936,328.016,208.252,326.687,208.252z"/>
						</g>
						<g>
							<path style="fill:none;stroke:#16004D;stroke-linecap:round;stroke-miterlimit:10;" d="M273.689,201.228
								c0,0,12.013,8.245,24.346,11.5"/>
							<path style="fill:none;stroke:#16004D;stroke-linecap:round;stroke-miterlimit:10;" d="M323.413,180.116
								c3.278,7.21,5.541,14.465,6.544,21.112c3.801,25.193-16.6,61.837-87.197,71.999"/>
							<path style="fill:none;stroke:#16004D;stroke-linecap:round;stroke-miterlimit:10;" d="M252.862,203.436
								c27.665-3.617-2.901-28.174-9.118-40.895c-4.439-9.083,0.829-32.908,29.426-28.556"/>
						</g>
					</g>
					<path style="fill:#F6C8A6;" d="M215.611,111.359c0,0,40.385,26.822,40.496,30.882c0.111,4.061-3.714,10.735-10.513,12.719
						c-6.799,1.984-38.219-12.085-38.219-12.085S209.668,121.304,215.611,111.359z"/>
				</g>
				<circle style="fill:#16004D;" cx="158.732" cy="178.309" r="28.223"/>
				<g>
					<g>
						<path style="fill:#2E4ECC;" d="M93.439,283.602c27.244,12.901,28.836,37.428,25.511,45.935
							c-3.325,8.507-6.741,14.5-30.423,15.061c-23.682,0.561-39.013-11.201-39.771-35.528c-0.758-24.327,22.04-54.186,44.929-69.866
							c22.888-15.68,60.513-45.577,100.024-43.467c39.512,2.11,84.613,38.225,84.613,38.225l-143.245,53.606
							c0,0-18.074,10.085-19.824,14.152"/>
					</g>
					<g>
						<path style="fill:#FFFFFF;" d="M112.992,281.358c0-2.871-2.335-5.206-5.205-5.206c-2.87,0-5.206,2.335-5.206,5.206
							c0,2.87,2.335,5.205,5.206,5.205C110.657,286.563,112.992,284.228,112.992,281.358z M103.535,281.358
							c0-2.344,1.907-4.252,4.252-4.252s4.251,1.907,4.251,4.252c0,2.343-1.907,4.251-4.251,4.251S103.535,283.701,103.535,281.358z
							"/>
						<path style="fill:#FFFFFF;" d="M83.345,280.967c4.262,0,7.73-3.468,7.73-7.73c0-4.262-3.467-7.73-7.73-7.73
							c-4.262,0-7.73,3.468-7.73,7.73C75.615,277.5,79.083,280.967,83.345,280.967z M83.345,266.462c3.736,0,6.776,3.04,6.776,6.776
							s-3.039,6.776-6.776,6.776c-3.736,0-6.776-3.039-6.776-6.776S79.609,266.462,83.345,266.462z"/>
						<path style="fill:#FFFFFF;" d="M100.482,258.421c0,1.577,1.283,2.86,2.86,2.86c1.577,0,2.861-1.283,2.861-2.86
							c0-1.577-1.283-2.86-2.861-2.86C101.765,255.561,100.482,256.844,100.482,258.421z M105.249,258.421
							c0,1.051-0.855,1.906-1.906,1.906c-1.051,0-1.906-0.855-1.906-1.906c0-1.051,0.855-1.906,1.906-1.906
							C104.393,256.515,105.249,257.37,105.249,258.421z"/>
						<path style="fill:#FFFFFF;" d="M100.515,306.855c0-3.094-2.517-5.612-5.611-5.612c-3.094,0-5.611,2.518-5.611,5.612
							c0,3.094,2.517,5.611,5.611,5.611C97.998,312.466,100.515,309.949,100.515,306.855z M94.903,311.512
							c-2.568,0-4.657-2.089-4.657-4.657c0-2.568,2.09-4.658,4.657-4.658c2.568,0,4.657,2.09,4.657,4.658
							C99.561,309.423,97.471,311.512,94.903,311.512z"/>
						<path style="fill:#FFFFFF;" d="M98.824,328.075c-1.828,0-3.316,1.487-3.316,3.315s1.488,3.315,3.316,3.315
							c1.828,0,3.315-1.487,3.315-3.315S100.652,328.075,98.824,328.075z M98.824,333.751c-1.302,0-2.361-1.059-2.361-2.361
							c0-1.302,1.059-2.361,2.361-2.361c1.302,0,2.361,1.059,2.361,2.361C101.185,332.692,100.126,333.751,98.824,333.751z"/>
						<path style="fill:#FFFFFF;" d="M77.191,314.891c0-3.577-2.91-6.487-6.487-6.487c-3.576,0-6.486,2.91-6.486,6.487
							c0,3.576,2.91,6.486,6.486,6.486C74.281,321.376,77.191,318.467,77.191,314.891z M65.172,314.891
							c0-3.051,2.482-5.533,5.532-5.533c3.051,0,5.533,2.482,5.533,5.533c0,3.051-2.482,5.532-5.533,5.532
							C67.654,320.422,65.172,317.941,65.172,314.891z"/>
						<path style="fill:#FFFFFF;" d="M116.596,235.601c0,4.922-4.005,8.927-8.927,8.927c-4.894,0-8.876-3.959-8.923-8.841
							c-0.308,0.216-0.617,0.432-0.921,0.645c0.377,5.107,4.642,9.15,9.844,9.15c5.448,0,9.881-4.432,9.881-9.881
							c0-3.986-2.377-7.419-5.784-8.98c-0.313,0.213-0.631,0.428-0.941,0.641C114.193,228.54,116.596,231.791,116.596,235.601z"/>
						<path style="fill:#FFFFFF;" d="M120.186,322.618c0.013-0.369,0.02-0.744,0.019-1.127c-1.215,0.8-2.667,1.269-4.227,1.269
							c-4.253,0-7.714-3.461-7.714-7.714c0-4.253,3.461-7.714,7.714-7.714c0.468,0,0.924,0.049,1.37,0.129
							c-0.14-0.343-0.278-0.686-0.43-1.03c-0.309-0.034-0.622-0.053-0.94-0.053c-4.779,0-8.668,3.888-8.668,8.668
							c0,4.78,3.889,8.668,8.668,8.668C117.505,323.714,118.939,323.314,120.186,322.618z"/>
						<path style="fill:#FFFFFF;" d="M90.138,344.547c0.022-0.271,0.042-0.542,0.042-0.818c0-5.501-4.475-9.977-9.976-9.977
							c-4.923,0-9.014,3.588-9.822,8.284c0.302,0.107,0.609,0.208,0.917,0.308c0.67-4.319,4.402-7.638,8.905-7.638
							c4.975,0,9.022,4.047,9.022,9.023c0,0.286-0.017,0.569-0.043,0.849C89.505,344.568,89.824,344.558,90.138,344.547z"/>
						<path style="fill:#FFFFFF;" d="M60.952,336.9c0.842-1.475,1.33-3.177,1.33-4.993c0-5.577-4.537-10.113-10.113-10.113
							c-0.454,0-0.898,0.04-1.336,0.099c0.099,0.309,0.201,0.615,0.306,0.917c0.339-0.038,0.681-0.062,1.03-0.062
							c5.051,0,9.159,4.109,9.159,9.159c0,1.589-0.408,3.084-1.123,4.388C60.449,336.502,60.701,336.701,60.952,336.9z"/>
						<path style="fill:#FFFFFF;" d="M64.965,285.049c0-3.917-2.855-7.172-6.592-7.815c-0.171,0.295-0.347,0.589-0.515,0.885
							c3.46,0.413,6.152,3.36,6.152,6.929c0,3.851-3.133,6.983-6.983,6.983c-1.857,0-3.543-0.734-4.795-1.92
							c-0.121,0.326-0.226,0.652-0.34,0.978c1.386,1.18,3.177,1.897,5.136,1.897C61.404,292.987,64.965,289.426,64.965,285.049z"/>
					</g>
					<g>
						<path style="fill:none;stroke:#16004D;stroke-linecap:round;stroke-miterlimit:10;" d="M93.439,283.602
							c27.244,12.901,28.836,37.428,25.511,45.935c-3.325,8.507-6.741,14.5-30.423,15.061
							c-23.682,0.561-39.013-11.201-39.771-35.528c-0.673-21.59,17.209-47.539,37.242-64.065"/>
						<path style="fill:none;stroke:#16004D;stroke-linecap:round;stroke-miterlimit:10;" d="M135.077,287.568
							c0,0-18.074,10.085-19.824,14.152"/>
					</g>
				</g>
				<g>
					<path style="fill:#2E4ECC;" d="M253.567,292.286v-34.777c0,0-13.949-49.914-50.601-56.029
						c-36.652-6.115-53.867,11.6-63.818,21.723c-9.951,10.123-3.645,67.214-3.318,70.275c0.327,3.062,4.176,25.829,5.503,29.253
						c1.327,3.424,3.299,6.819,5.986,8.9c2.687,2.081,26.225,5.818,47.918,6.48c21.693,0.662,37.664-8.281,42.689-10.304
						c5.025-2.023,9.03-4.031,12.154-10.608C253.204,310.621,253.567,292.286,253.567,292.286z"/>
					<g>
						<g>
							<path style="fill:#FFFFFF;" d="M136.659,245.748c-4.579,0-8.305-3.726-8.305-8.305s3.726-8.304,8.305-8.304
								s8.305,3.725,8.305,8.304S141.238,245.748,136.659,245.748z M136.659,230.094c-4.053,0-7.351,3.297-7.351,7.35
								c0,4.053,3.298,7.351,7.351,7.351s7.35-3.297,7.35-7.351C144.009,233.391,140.712,230.094,136.659,230.094z"/>
						</g>
						<g>
							<path style="fill:#FFFFFF;" d="M175.869,242.156c-1.815,0-3.29-1.476-3.29-3.291c0-1.815,1.476-3.291,3.29-3.291
								c1.815,0,3.291,1.476,3.291,3.291C179.16,240.68,177.684,242.156,175.869,242.156z M175.869,236.528
								c-1.288,0-2.336,1.048-2.336,2.337c0,1.289,1.048,2.337,2.336,2.337c1.289,0,2.337-1.048,2.337-2.337
								C178.206,237.577,177.158,236.528,175.869,236.528z"/>
						</g>
						<g>
							<path style="fill:#FFFFFF;" d="M168.684,289.324c-6.303,0-11.431-5.127-11.431-11.431c0-6.303,5.128-11.43,11.431-11.43
								c6.303,0,11.43,5.127,11.43,11.43C180.115,284.197,174.987,289.324,168.684,289.324z M168.684,267.418
								c-5.777,0-10.477,4.7-10.477,10.476c0,5.777,4.7,10.477,10.477,10.477c5.776,0,10.476-4.7,10.476-10.477
								C179.16,272.117,174.461,267.418,168.684,267.418z"/>
						</g>
						<g>
							<path style="fill:#FFFFFF;" d="M172.372,317.991c-2.512,0-4.555-2.043-4.555-4.555s2.043-4.555,4.555-4.555
								c2.512,0,4.555,2.043,4.555,4.555S174.884,317.991,172.372,317.991z M172.372,309.835c-1.986,0-3.601,1.616-3.601,3.601
								c0,1.986,1.615,3.601,3.601,3.601c1.986,0,3.601-1.616,3.601-3.601C175.973,311.451,174.358,309.835,172.372,309.835z"/>
						</g>
						<g>
							<path style="fill:#FFFFFF;" d="M214.305,307.331c-5.493,0-9.961-4.469-9.961-9.96s4.468-9.96,9.961-9.96
								c5.492,0,9.96,4.469,9.96,9.96S219.797,307.331,214.305,307.331z M214.305,288.365c-4.966,0-9.007,4.04-9.007,9.006
								c0,4.966,4.04,9.006,9.007,9.006c4.966,0,9.006-4.04,9.006-9.006C223.311,292.405,219.271,288.365,214.305,288.365z"/>
						</g>
						<g>
							<path style="fill:#FFFFFF;" d="M236.912,321.853c-1.931,0-3.501-1.571-3.501-3.501s1.57-3.501,3.501-3.501
								c1.931,0,3.501,1.571,3.501,3.501S238.843,321.853,236.912,321.853z M236.912,315.805c-1.405,0-2.547,1.142-2.547,2.547
								c0,1.405,1.142,2.547,2.547,2.547c1.405,0,2.547-1.142,2.547-2.547C239.459,316.947,238.317,315.805,236.912,315.805z"/>
						</g>
						<g>
							<path style="fill:#FFFFFF;" d="M232.789,271.42c-2.618,0-4.749-2.13-4.749-4.749s2.13-4.749,4.749-4.749
								c2.618,0,4.749,2.13,4.749,4.749S235.407,271.42,232.789,271.42z M232.789,262.877c-2.092,0-3.795,1.702-3.795,3.795
								c0,2.092,1.702,3.794,3.795,3.794c2.092,0,3.794-1.702,3.794-3.794C236.584,264.579,234.881,262.877,232.789,262.877z"/>
						</g>
						<g>
							<path style="fill:#FFFFFF;" d="M196.981,271.578c-1.542,0-2.797-1.255-2.797-2.797c0-1.542,1.255-2.797,2.797-2.797
								c1.542,0,2.797,1.255,2.797,2.797C199.777,270.324,198.523,271.578,196.981,271.578z M196.981,266.939
								c-1.016,0-1.843,0.827-1.843,1.842c0,1.016,0.827,1.843,1.843,1.843s1.842-0.827,1.842-1.843
								C198.823,267.765,197.997,266.939,196.981,266.939z"/>
						</g>
						<g>
							<path style="fill:#FFFFFF;" d="M154.457,257.979c-1.543,0-2.797-1.255-2.797-2.797c0-1.542,1.255-2.797,2.797-2.797
								c1.542,0,2.797,1.255,2.797,2.797C157.254,256.724,155.999,257.979,154.457,257.979z M154.457,253.339
								c-1.016,0-1.843,0.827-1.843,1.843c0,1.016,0.827,1.843,1.843,1.843c1.016,0,1.843-0.827,1.843-1.843
								C156.3,254.166,155.473,253.339,154.457,253.339z"/>
						</g>
						<g>
							<path style="fill:#FFFFFF;" d="M207.86,251.852c-6.262,0-11.356-5.094-11.356-11.357c0-6.262,5.094-11.356,11.356-11.356
								c6.262,0,11.357,5.094,11.357,11.356C219.216,246.758,214.122,251.852,207.86,251.852z M207.86,230.094
								c-5.736,0-10.402,4.666-10.402,10.402c0,5.736,4.666,10.402,10.402,10.402c5.736,0,10.402-4.667,10.402-10.402
								C218.262,234.76,213.595,230.094,207.86,230.094z"/>
						</g>
						<g>
							<path style="fill:#FFFFFF;" d="M192.642,215.172c-3.434,0-6.227-2.793-6.227-6.227c0-3.433,2.793-6.227,6.227-6.227
								c3.434,0,6.227,2.793,6.227,6.227C198.87,212.378,196.076,215.172,192.642,215.172z M192.642,203.672
								c-2.908,0-5.273,2.365-5.273,5.273s2.365,5.273,5.273,5.273s5.273-2.365,5.273-5.273S195.55,203.672,192.642,203.672z"/>
						</g>
						<g>
							<path style="fill:#FFFFFF;" d="M242.161,237.921c-2.421,0-4.391-1.97-4.391-4.391c0-2.421,1.97-4.39,4.391-4.39
								c2.421,0,4.391,1.97,4.391,4.39C246.552,235.951,244.582,237.921,242.161,237.921z M242.161,230.094
								c-1.895,0-3.437,1.542-3.437,3.436c0,1.895,1.542,3.437,3.437,3.437c1.895,0,3.437-1.542,3.437-3.437
								C245.598,231.635,244.056,230.094,242.161,230.094z"/>
						</g>
						<g>
							<path style="fill:#FFFFFF;" d="M133.543,278.371c-5.346,0-9.695-4.349-9.695-9.695c0-5.346,4.349-9.695,9.695-9.695
								c5.346,0,9.695,4.349,9.695,9.695C143.238,274.021,138.888,278.371,133.543,278.371z M133.543,259.934
								c-4.82,0-8.741,3.921-8.741,8.741c0,4.82,3.921,8.741,8.741,8.741c4.82,0,8.741-3.921,8.741-8.741
								C142.284,263.855,138.362,259.934,133.543,259.934z"/>
						</g>
						<path style="fill:#FFFFFF;" d="M159.094,220.768c6.534,0,11.85-5.316,11.85-11.85c0-4.066-2.059-7.658-5.188-9.793
							c-0.418,0.117-0.837,0.225-1.254,0.347c3.274,1.882,5.488,5.407,5.488,9.446c0,6.008-4.888,10.895-10.895,10.895
							c-6.008,0-10.895-4.887-10.895-10.895c0-1.286,0.236-2.516,0.647-3.662c-0.387,0.171-0.777,0.336-1.162,0.51
							c-0.278,1.005-0.439,2.059-0.439,3.152C147.245,215.453,152.561,220.768,159.094,220.768z"/>
						<path style="fill:#FFFFFF;" d="M253.265,298.767c-5.276-0.003-9.567-4.295-9.567-9.572c0-5.278,4.294-9.572,9.572-9.572
							c0.1,0,0.197,0.012,0.297,0.015v-0.954c-0.1-0.003-0.197-0.015-0.297-0.015c-5.804,0-10.526,4.722-10.526,10.526
							c0,5.78,4.684,10.484,10.456,10.522C253.222,299.395,253.244,299.078,253.265,298.767z"/>
						<path style="fill:#FFFFFF;" d="M213.032,336.564c0.236-0.95,0.376-1.938,0.376-2.961c0-6.775-5.512-12.287-12.287-12.287
							c-6.775,0-12.287,5.512-12.287,12.287c0,1.503,0.285,2.938,0.781,4.27c0.345,0.018,0.69,0.036,1.034,0.053
							c-0.552-1.333-0.861-2.792-0.861-4.323c0-6.249,5.084-11.333,11.333-11.333c6.249,0,11.333,5.084,11.333,11.333
							c0,1.1-0.165,2.161-0.459,3.167C212.344,336.705,212.687,336.634,213.032,336.564z"/>
						<path style="fill:#FFFFFF;" d="M159.391,328.075c-3.505,0-6.533,2.048-7.974,5.005c0.302,0.075,0.618,0.151,0.948,0.227
							c1.321-2.538,3.972-4.278,7.025-4.278c3.984,0,7.281,2.959,7.831,6.793c0.325,0.042,0.654,0.084,0.984,0.126
							C167.705,331.525,163.945,328.075,159.391,328.075z"/>
						<path style="fill:#FFFFFF;" d="M150.351,307.791c0-5.397-4.39-9.787-9.787-9.787c-1.397,0-2.724,0.299-3.928,0.829
							c0.052,0.318,0.106,0.645,0.161,0.98c1.144-0.543,2.418-0.855,3.767-0.855c4.87,0,8.833,3.963,8.833,8.833
							c0,4.87-3.962,8.832-8.833,8.832c-0.243,0-0.482-0.017-0.72-0.036c0.067,0.33,0.134,0.651,0.2,0.964
							c0.173,0.009,0.345,0.026,0.52,0.026C145.96,317.577,150.351,313.186,150.351,307.791z"/>
						<path style="fill:#FFFFFF;" d="M228.04,220.043c7.981,0,14.557-6.112,15.305-13.9c-0.316-0.028-0.635-0.051-0.95-0.081
							c-0.706,7.3-6.873,13.027-14.355,13.027c-7.954,0-14.426-6.471-14.426-14.426c0-1.813,0.35-3.541,0.964-5.141
							c-0.302-0.111-0.604-0.221-0.894-0.33c-0.651,1.703-1.024,3.542-1.024,5.471C212.66,213.143,219.56,220.043,228.04,220.043z"
							/>
					</g>
					<path style="fill:none;stroke:#16004D;stroke-linecap:round;stroke-miterlimit:10;" d="M134.65,276.629
						c1.312,30.557,6.169,48.905,10.441,53.572c0.692,0.757,3.536,2.081,3.536,2.081s20.008,5.378,45.171,5.78
						c6.63,0.106,12.746-0.367,18.795-1.41c7.371-1.27,13.913-4.011,19.642-6.311c7.975-3.202,14.087-6.289,16.13-9.953
						c6.201-11.12,5.201-41.832,5.201-41.832v-21.048"/>
				</g>
				<g>
					<g>
						<g>
							<g>
								<path style="fill:#F6C8A6;" d="M155.008,354.71c2.838-2.066-6.774-11.439-9.39-14.938
									c2.923,3.108,10.527,12.93,13.262,10.498c3.416-3.036-10.218-17.263-10.218-17.263c4.304,3.614,9.895,11.348,12.457,12.339
									c1.073,0.415,2.554,0.026,2.249-2.718c-0.208-1.874-2.14-4.207-3.695-6.185c-7.323-9.319-27.117-19.154-36.158-23.378
									c-1.978-0.924-3.031-0.989-5.828-1.799c-5.877-1.702-10.202,3.666-12.56,7.783c-2.598,4.536-3.015,10.862,0.281,14.786
									c7.399,8.807,15.527,10.521,21.092,12.389c14.861,4.986,19.586,16.171,23.836,13.438c2.475-1.592-5.039-11.93-8.541-15.165
									C145.457,347.343,151.164,357.508,155.008,354.71z"/>
							</g>
						</g>
						<g>
							<g>
								<g>
									<path style="fill:#EF8576;" d="M148.046,351.282c-2.635-3.941-5.734-7.556-9.233-10.755
										c-0.356-0.325-0.887,0.204-0.53,0.53c3.453,3.157,6.515,6.714,9.115,10.603
										C147.665,352.06,148.315,351.684,148.046,351.282L148.046,351.282z"/>
								</g>
							</g>
							<g>
								<g>
									<path style="fill:#EF8576;" d="M152.4,347.035c-3.388-4.024-6.984-7.867-10.773-11.515c-0.348-0.335-0.879,0.195-0.53,0.53
										c3.79,3.647,7.386,7.491,10.774,11.515C152.181,347.935,152.709,347.402,152.4,347.035L152.4,347.035z"/>
								</g>
							</g>
							<g>
								<g>
									<path style="fill:#EF8576;" d="M155.266,339.716c-3.233-4.498-7.234-8.388-11.825-11.488
										c-0.401-0.271-0.777,0.379-0.379,0.648c4.478,3.024,8.402,6.83,11.556,11.219
										C154.898,340.483,155.548,340.109,155.266,339.716L155.266,339.716z"/>
								</g>
							</g>
						</g>
					</g>
				</g>
				<g>
					<g>
						<path style="fill:#F6C8A6;" d="M171.202,144.999c2.6,0,4.998,0.832,6.96,2.23v-7.169c0-11.364,8.167-20.663,18.148-20.663
							h15.013c9.982,0,18.148,9.298,18.148,20.663v23.273c0,11.365-8.167,20.663-18.148,20.663h-8.681v12.538
							c0,5.141-4.206,9.347-9.347,9.347h-5.956c-5.141,0-9.347-4.206-9.347-9.347v-14.168v-0.789v-14.168
							c0-0.285,0.026-0.564,0.052-0.841c-1.939,1.347-4.295,2.143-6.842,2.143c-6.602,0-11.953-5.308-11.953-11.856
							C159.249,150.306,164.6,144.999,171.202,144.999z"/>
						<path style="fill:none;stroke:#010001;stroke-linecap:round;stroke-miterlimit:10;" d="M177.667,158.42
							c0,0,0.526-8.053-7.743-7.158"/>
						<g>
							<g>
								<path style="fill:#010001;" d="M200.384,147.663c0,1.341,1.087,2.428,2.428,2.428s2.428-1.087,2.428-2.428
									c0-1.341-1.087-2.428-2.428-2.428S200.384,146.322,200.384,147.663z"/>
								<path style="fill:#010001;" d="M222.413,147.167c0,1.137,0.922,2.059,2.059,2.059c1.137,0,2.059-0.922,2.059-2.059
									s-0.922-2.059-2.059-2.059C223.335,145.108,222.413,146.03,222.413,147.167z"/>
							</g>
							<g>
								<path style="fill:#EF8576;" d="M187.665,160.108c0,4.646,3.766,8.412,8.412,8.412c4.646,0,8.412-3.766,8.412-8.412
									c0-4.646-3.766-8.412-8.412-8.412C191.431,151.696,187.665,155.462,187.665,160.108z"/>
								<path style="fill:#EF8576;" d="M227.93,153.706c0.512,0,1.008,0.067,1.485,0.18v8.725c0,1.304-0.049,2.565-0.313,3.792
									c-0.351,0.06-0.804,0.108-1.172,0.108c-3.536,0-6.402-2.867-6.402-6.403C221.527,156.572,224.394,153.706,227.93,153.706z"
									/>
							</g>
							<g>
								<g>
									<path style="fill:#010001;" d="M197.962,142.444c1.691-0.891,3.465-1.604,5.302-2.132c0.463-0.133,0.266-0.857-0.199-0.723
										c-1.897,0.546-3.735,1.287-5.481,2.208C197.157,142.022,197.535,142.669,197.962,142.444L197.962,142.444z"/>
								</g>
							</g>
							<g>
								<g>
									<path style="fill:#010001;" d="M221.527,141.747c1.901-0.071,3.808,0.014,5.693,0.272c0.202,0.028,0.4-0.049,0.461-0.262
										c0.05-0.174-0.061-0.434-0.262-0.461c-1.954-0.267-3.921-0.372-5.892-0.299
										C221.046,141.015,221.044,141.765,221.527,141.747L221.527,141.747z"/>
								</g>
							</g>
							<g>
								<g>
									<path style="fill:#010001;" d="M214.02,144.412c1.064,3.16,2.567,6.152,4.477,8.884c0.045-0.171,0.09-0.342,0.135-0.513
										c-1.421,0.615-2.912,1.038-4.44,1.283c-0.475,0.076-0.274,0.799,0.199,0.723c1.597-0.256,3.136-0.717,4.619-1.359
										c0.176-0.076,0.24-0.362,0.135-0.513c-1.874-2.68-3.358-5.606-4.401-8.705C214.59,143.758,213.866,143.953,214.02,144.412
										L214.02,144.412z"/>
								</g>
							</g>
							<path style="fill:none;stroke:#010001;stroke-linecap:round;stroke-miterlimit:10;" d="M209.341,162.474
								c0,0,4.146-0.383,9.341,2.511"/>
						</g>
						<g>
							<path style="fill:#16004D;" d="M171.202,112.114c12.186-12.29,29.848-13.267,46.288-3.398
								c16.44,9.869,16.077,26.033,15.099,28.337c-0.58,1.367-1.394,2.395-3.123,2.745c-1.517,0.191-4.073-0.086-8.628-1.056
								c-13.114-2.792-21.411-14.152-21.411-14.152s1.114,2.048-3.351,11.545c-3.349,7.124-11.862,11.527-16.21,13.347
								c-1.339-1.819-4.592-4.332-8.54-4.483c-2.83-0.108-6.043,1.456-8.127,3.055C159.875,141.596,159.986,123.426,171.202,112.114
								z"/>
						</g>
					</g>
					<g>
						<g>
							<g>
								<path style="fill:#FFFFFF;" d="M178.962,207.223l22.008-0.247c3.673-0.041,6.617-3.052,6.576-6.725l-0.044-3.899
									c-0.041-3.673-3.052-6.617-6.725-6.575l-22.007,0.247c-3.673,0.041-6.617,3.052-6.576,6.725l0.044,3.899
									C172.278,204.32,175.289,207.264,178.962,207.223z"/>
								<path style="fill:none;stroke:#2E4ECC;stroke-miterlimit:10;" d="M178.962,207.223l22.008-0.247
									c3.673-0.041,6.617-3.052,6.576-6.725l-0.044-3.899c-0.041-3.673-3.052-6.617-6.725-6.575l-22.007,0.247
									c-3.673,0.041-6.617,3.052-6.576,6.725l0.044,3.899C172.278,204.32,175.289,207.264,178.962,207.223z"/>
							</g>
						</g>
						<g>
							<line style="fill:none;stroke:#2E4ECC;stroke-miterlimit:10;" x1="175.696" y1="190.696" x2="175.696" y2="206.532"/>
							<line style="fill:none;stroke:#2E4ECC;stroke-miterlimit:10;" x1="179.746" y1="190.502" x2="179.746" y2="207.214"/>
							<line style="fill:none;stroke:#2E4ECC;stroke-miterlimit:10;" x1="183.796" y1="190.229" x2="183.796" y2="207.165"/>
							<line style="fill:none;stroke:#2E4ECC;stroke-miterlimit:10;" x1="187.847" y1="190.229" x2="187.847" y2="207.121"/>
							<line style="fill:none;stroke:#2E4ECC;stroke-miterlimit:10;" x1="191.897" y1="190.229" x2="191.897" y2="207.079"/>
							<line style="fill:none;stroke:#2E4ECC;stroke-miterlimit:10;" x1="195.947" y1="190.229" x2="195.947" y2="207.031"/>
							<line style="fill:none;stroke:#2E4ECC;stroke-miterlimit:10;" x1="199.998" y1="189.784" x2="199.998" y2="207.031"/>
							<line style="fill:none;stroke:#2E4ECC;stroke-miterlimit:10;" x1="204.048" y1="190.229" x2="204.048" y2="206.534"/>
						</g>
					</g>
				</g>
			</g>
			<g>
				<g>
					<g>
						<g>
							<g>
								<path style="fill:#FFFFFF;" d="M273.23,379.575l-13.015,16.936l-35.689,46.575c-45.552-2.218-46.084-24.311-39.078-42.216
									c10.405-26.591,46.477-59.156,76.768-77.377c25.592-15.394,53.742-19.581,61.86-20.51l-5.209,34.176L273.23,379.575"/>
							</g>
							<g>
								<path style="fill:#2E4ECC;" d="M201.093,389.999l-0.266-0.396c-1.135-1.692-0.683-3.983,1.008-5.118l12.747-8.551
									c1.692-1.135,3.983-0.683,5.118,1.008l0.266,0.396c1.135,1.692,0.683,3.983-1.008,5.118l-12.747,8.551
									C204.519,392.142,202.228,391.691,201.093,389.999z"/>
								<path style="fill:#2E4ECC;" d="M244.967,388.986l-0.266-0.396c-1.135-1.692-0.683-3.983,1.008-5.118l12.747-8.551
									c1.692-1.135,3.983-0.683,5.118,1.008l0.266,0.396c1.135,1.692,0.683,3.983-1.008,5.118l-12.747,8.551
									C248.393,391.129,246.102,390.678,244.967,388.986z"/>
								<path style="fill:#2E4ECC;" d="M239.244,366.602l-0.266-0.396c-1.135-1.692-0.683-3.983,1.008-5.118l12.747-8.551
									c1.692-1.135,3.983-0.683,5.118,1.008l0.266,0.396c1.135,1.692,0.683,3.983-1.008,5.118l-12.747,8.551
									C242.67,368.745,240.379,368.293,239.244,366.602z"/>
								<path style="fill:#2E4ECC;" d="M212.331,363.095c0.039,0.067,0.065,0.138,0.109,0.204l0,0
									c1.208,1.801,3.648,2.282,5.449,1.073l12.351-8.285c1.801-1.208,2.282-3.648,1.073-5.448
									c-0.893-1.332-2.46-1.936-3.944-1.675C222.117,353.505,217.055,358.253,212.331,363.095z"/>
								<path style="fill:#2E4ECC;" d="M257.419,340.002l-0.266-0.396c-1.135-1.692-0.683-3.983,1.008-5.118l12.747-8.551
									c1.692-1.135,3.983-0.683,5.118,1.008l0.265,0.396c1.135,1.692,0.683,3.983-1.008,5.118l-12.747,8.551
									C260.845,342.145,258.554,341.694,257.419,340.002z"/>
								<g>
									<path style="fill:#2E4ECC;" d="M289.212,327.834l-0.266-0.396c-1.135-1.692-0.683-3.983,1.008-5.118l12.747-8.551
										c1.692-1.135,3.983-0.683,5.118,1.008l0.266,0.396c1.135,1.692,0.683,3.983-1.008,5.118l-12.747,8.551
										C292.639,329.977,290.347,329.525,289.212,327.834z"/>
								</g>
							</g>
							<g>
								<path style="fill:none;stroke:#0F110E;stroke-linecap:round;stroke-miterlimit:10;" d="M324.077,302.984
									c-8.118,0.929-36.268,5.115-61.86,20.51c-30.291,18.221-66.362,50.786-76.768,77.377
									c-7.006,17.905-6.474,39.998,39.078,42.216l35.689-46.575l13.015-16.936"/>
							</g>
						</g>
						<g>
							<path style="fill:#FFFFFF;" d="M273.778,367.659l-1.096,31.625v43.984h123.82l2.779-10.218
								c9.712-16.186,27.023-67.69,11.762-100.481c-15.867-34.094-72.868-30.163-72.868-30.163l-17.766,9.111l-18.925,23.261
								l-27.243,20.882L273.778,367.659z"/>
							<g>
								<path style="fill:#2E4ECC;" d="M285.321,393.821h-0.477c-2.037,0-3.688-1.651-3.688-3.688v-15.349
									c0-2.037,1.651-3.688,3.688-3.688h0.477c2.037,0,3.688,1.651,3.688,3.688v15.349
									C289.01,392.17,287.358,393.821,285.321,393.821z"/>
								<path style="fill:#2E4ECC;" d="M302.689,412.062h-0.477c-2.037,0-3.688-1.651-3.688-3.688v-15.35
									c0-2.037,1.651-3.688,3.688-3.688h0.477c2.037,0,3.688,1.651,3.688,3.688v15.35
									C306.377,410.411,304.726,412.062,302.689,412.062z"/>
								<path style="fill:#2E4ECC;" d="M320.376,397.54h-0.477c-2.037,0-3.688-1.651-3.688-3.688v-15.349
									c0-2.037,1.651-3.688,3.688-3.688h0.477c2.037,0,3.688,1.651,3.688,3.688v15.349
									C324.064,395.888,322.413,397.54,320.376,397.54z"/>
								<path style="fill:#2E4ECC;" d="M306.616,370.144h-0.477c-2.037,0-3.688-1.651-3.688-3.688v-15.35
									c0-2.037,1.651-3.688,3.688-3.688h0.477c2.037,0,3.688,1.651,3.688,3.688v15.35
									C310.304,368.492,308.653,370.144,306.616,370.144z"/>
								<path style="fill:#2E4ECC;" d="M326.198,349.917h-0.477c-2.037,0-3.688-1.651-3.688-3.688v-15.35
									c0-2.037,1.651-3.688,3.688-3.688h0.477c2.037,0,3.688,1.651,3.688,3.688v15.35
									C329.887,348.266,328.235,349.917,326.198,349.917z"/>
								<path style="fill:#2E4ECC;" d="M367.007,343.932h-0.477c-2.037,0-3.688-1.651-3.688-3.688v-15.35
									c0-2.037,1.651-3.688,3.688-3.688h0.477c2.037,0,3.688,1.651,3.688,3.688v15.35
									C370.695,342.281,369.043,343.932,367.007,343.932z"/>
								<path style="fill:#2E4ECC;" d="M404.926,363.329h-0.477c-2.037,0-3.688-1.651-3.688-3.688v-15.35
									c0-2.037,1.651-3.688,3.688-3.688h0.477c2.037,0,3.688,1.651,3.688,3.688v15.35
									C408.614,361.678,406.963,363.329,404.926,363.329z"/>
								<path style="fill:#2E4ECC;" d="M389.219,372.768h-0.477c-2.037,0-3.688-1.651-3.688-3.688v-15.35
									c0-2.037,1.651-3.688,3.688-3.688h0.477c2.037,0,3.688,1.651,3.688,3.688v15.35
									C392.908,371.117,391.256,372.768,389.219,372.768z"/>
								<path style="fill:#2E4ECC;" d="M409.894,332.669c0.389,0,0.756-0.074,1.111-0.179c-1.388-2.965-3.091-5.636-5.037-8.052
									v4.304C405.967,330.911,407.725,332.669,409.894,332.669z"/>
								<path style="fill:#2E4ECC;" d="M382.729,308.664v12.008c0,2.169,1.758,3.927,3.927,3.927c2.169,0,3.927-1.758,3.927-3.927
									v-8.512C388.04,310.827,385.406,309.667,382.729,308.664z"/>
								<path style="fill:#2E4ECC;" d="M386.431,340.126c-0.64-1.299-1.965-2.201-3.511-2.201c-2.169,0-3.927,1.758-3.927,3.927
									l0.248,10.114L386.431,340.126z"/>
								<path style="fill:#2E4ECC;" d="M274.414,352.977l-0.265-0.396c-1.135-1.692-0.683-3.983,1.008-5.118l12.747-8.551
									c1.692-1.135,3.983-0.683,5.118,1.008l0.266,0.396c1.135,1.692,0.683,3.983-1.008,5.118l-12.747,8.551
									C277.84,355.12,275.549,354.669,274.414,352.977z"/>
							</g>
							<g>
								<path style="fill:none;stroke:#0F110E;stroke-linecap:round;stroke-miterlimit:10;" d="M273.778,367.659l-1.096,31.625
									v43.984h123.82l2.779-10.218c9.712-16.186,27.023-67.69,11.762-100.481c-15.867-34.094-72.868-30.163-72.868-30.163"/>
								<path style="fill:none;stroke:#0F110E;stroke-linecap:round;stroke-miterlimit:10;" d="M370.909,366.09
									c0,0,11.82-20.484,18.252-29.924"/>
							</g>
						</g>
						<ellipse style="fill:#6FBBEF;stroke:#0F110E;stroke-miterlimit:10;" cx="342.306" cy="311.516" rx="24.991" ry="11.977"/>
					</g>
					<g>
						<g>
							<path style="fill:#A66957;" d="M344.075,314.859h-5.48c-6.098,0-11.042-4.943-11.042-11.042v-7.969
								c0-6.098,4.943-11.042,11.042-11.042h5.48c6.098,0,11.042,4.943,11.042,11.042v7.969
								C355.116,309.916,350.173,314.859,344.075,314.859z"/>
							<path style="fill:#161522;" d="M314.405,276.191c-0.144-0.428-8.749-13.658-9.26-25.185
								c-0.512-11.528,4.124-33.235,36.978-34.274c11.496-0.364,36.004,1.133,35.907,28.766
								c-0.097,27.865-13.074,43.795-15.988,45.317C359.127,292.337,322.159,299.169,314.405,276.191z"/>
							<g>
								<g>
									<path style="fill:#A66957;" d="M381.161,274.423c-0.094,4.366-3.739,7.829-8.141,7.734c-4.402-0.095-7.894-3.711-7.8-8.077
										c0.094-4.366,3.739-7.829,8.141-7.734C377.763,266.44,381.255,270.057,381.161,274.423z"/>
									<path style="fill:none;stroke:#7F4040;stroke-linecap:round;stroke-miterlimit:10;" d="M368.857,275.203
										c0,0-0.235-5.377,5.266-4.662"/>
								</g>
								<g>
									<path style="fill:#A66957;" d="M301.978,274.005c-0.094,4.366,3.398,7.983,7.8,8.077c4.402,0.095,8.047-3.368,8.141-7.734
										c0.094-4.366-3.398-7.983-7.8-8.077C305.716,266.176,302.072,269.639,301.978,274.005z"/>
									<path style="fill:none;stroke:#7F4040;stroke-linecap:round;stroke-miterlimit:10;" d="M314.237,275.314
										c0,0,0.467-5.362-5.061-4.885"/>
								</g>
							</g>
							<g>
								<path style="fill:#A66957;" d="M366.741,280.318c-0.011,9.743-7.993,17.706-17.736,17.695l-14.948-0.017
									c-9.744-0.011-17.706-7.993-17.695-17.736l0.037-31.291c0.011-9.743,7.993-17.706,17.736-17.695l14.948,0.018
									c9.744,0.012,17.706,7.993,17.695,17.736L366.741,280.318z"/>
								<g>
									<path style="fill:none;stroke:#7F4040;stroke-linecap:round;stroke-miterlimit:10;" d="M357.133,296.035
										c-2.439,1.266-5.204,1.98-8.129,1.977l-14.948-0.017c-3.25-0.004-6.301-0.894-8.925-2.441"/>
								</g>
							</g>
							<g>
								<g>
									<path style="fill:#9E5656;" d="M330.029,275.884c-0.269,3.495-3.321,6.11-6.816,5.84c-3.495-0.269-6.11-3.321-5.841-6.816
										c0.27-3.495,3.321-6.11,6.816-5.841C327.683,269.337,330.298,272.389,330.029,275.884z"/>
									<path style="fill:#9E5656;" d="M364.742,275.924c-0.269,3.495-3.321,6.11-6.816,5.841c-3.495-0.269-6.11-3.321-5.84-6.816
										c0.269-3.495,3.321-6.11,6.816-5.84C362.397,269.378,365.012,272.43,364.742,275.924z"/>
								</g>
								<path style="fill:none;stroke:#7F4040;stroke-linecap:round;stroke-miterlimit:10;" d="M341.349,261.031
									c-0.824,3.549-1.615,7.105-2.373,10.668c1.573,0.066,3.145,0.138,4.717,0.214"/>
								<path style="fill:#161522;" d="M328.307,264.232c0.023,1.293-1.007,2.36-2.3,2.383c-1.293,0.023-2.36-1.007-2.383-2.3
									c-0.023-1.293,1.007-2.36,2.3-2.383C327.217,261.909,328.284,262.939,328.307,264.232z"/>
								<path style="fill:#161522;" d="M359.968,264.19c0.023,1.293-1.007,2.36-2.3,2.383c-1.293,0.023-2.36-1.007-2.383-2.3
									c-0.023-1.293,1.007-2.36,2.3-2.383C358.878,261.867,359.945,262.897,359.968,264.19z"/>
								<g>
									<g>
										<path style="fill:#161522;" d="M322.603,262.156c2.19-0.133,4.38-0.267,6.57-0.4c0.586-0.036,1.153-0.492,1.125-1.125
											c-0.026-0.579-0.496-1.163-1.125-1.125c-2.19,0.133-4.38,0.267-6.57,0.4c-0.586,0.036-1.153,0.492-1.125,1.125
											C321.504,261.61,321.974,262.195,322.603,262.156L322.603,262.156z"/>
									</g>
								</g>
								<g>
									<g>
										<path style="fill:#161522;" d="M353.953,260.392c2.365,0.601,4.73,1.201,7.095,1.802c0.57,0.145,1.247-0.185,1.384-0.786
											c0.133-0.585-0.176-1.229-0.786-1.384c-2.365-0.601-4.73-1.201-7.095-1.802c-0.57-0.145-1.247,0.185-1.384,0.786
											C353.034,259.593,353.343,260.237,353.953,260.392L353.953,260.392z"/>
									</g>
								</g>
								<path style="fill:none;stroke:#7F4040;stroke-linecap:round;stroke-miterlimit:10;" d="M334.862,284.135
									c0,0,4.617-3.221,10.522-3.329"/>
							</g>
							<path style="fill:#161522;" d="M354.484,216.115c-4.131-1.25-7.804-1.819-10.064-1.875
								c-7.633-0.188-32.976,1.373-38.732,18.579c-5.757,17.206,3.579,33.248,3.579,33.248l-1.311-5.723
								c2.297,2.596,7.942,7.202,7.942,7.202l3.11-8.053c0,0,31.182-0.064,32.738-16.647c0.053-0.56-1.265,13.111,9.668,16.669
								c0,0-2.682-6.441-1.331-11.464c0,0,0.155,9.965,7.241,12.479l0.449,5.813c0,0,3.997-1.369,5.322-8.505
								c0.494,6.84,0.494,6.84,0.494,6.84s8.263-8.377,5.313-25.831C376.713,225.911,364.303,219.088,354.484,216.115"/>
						</g>
					</g>
					<g>
						<g>
							<g>
								<g>
									<path style="fill:#A66957;" d="M380.871,295.451c0,0,6.326-10.336,6.198-13.57c-0.128-3.234-3.886-5.193-7.219,0
										c-3.333,5.193-5.177,9.737-3.58,11.654C377.868,295.451,380.871,295.451,380.871,295.451z"/>
									<path style="fill:none;stroke:#7F4040;stroke-linecap:round;stroke-miterlimit:10;" d="M378.571,283.836
										c0,0,1.214-2.379,3.195-3.912"/>
								</g>
								<g>
									<g>
										<path style="fill:#EB3341;stroke:#1F1F1F;stroke-width:0.75;stroke-miterlimit:10;" d="M362.509,306.987L362.509,306.987
											c-1.396-0.793-1.876-2.496-1.073-3.805l21.118-34.398c0.803-1.308,2.586-1.726,3.982-0.933l0,0
											c1.396,0.793,2.06,2.66,1.257,3.969l-21.303,34.234C365.688,307.362,363.905,307.78,362.509,306.987z"/>
									</g>
									<polygon style="fill:#FFFFFF;" points="382.742,268.514 388.04,271.487 393.045,257.327 									"/>
									<polygon style="fill:#EB3341;" points="391.525,261.628 393.045,257.327 389.813,260.837 									"/>
									
										<polygon style="fill:none;stroke:#1F1F1F;stroke-width:0.75;stroke-linecap:round;stroke-linejoin:round;stroke-miterlimit:10;" points="
										382.742,268.514 388.04,271.487 393.045,257.327 									"/>
								</g>
								<g>
									<path style="fill:#A66957;" d="M379.439,302.893l-11.091,7.509c0,0-9.872,6.709-10.447,9.297
										c-0.575,2.588,3.546,21.948,3.546,21.948l-22.715,2.492c0,0-2.532-27.392-2.32-30.195
										c0.212-2.803-0.019-8.732,6.691-12.985c6.709-4.253,11.031-6.467,11.031-6.467s1.733-0.541,1.608-2.236
										c-0.125-1.695-0.466-6.011,1.262-7.955c1.728-1.944,4.93-5.249,6.292-5.914c1.362-0.665,2.605-0.936,2.605-0.936
										s1.094,0.469,1.742-0.006c0.648-0.475,2.193-1.045,2.193-1.045s1.06-0.513,1.559,0.068c0.499,0.58,2.464-0.454,2.991-0.122
										c0.527,0.331,1.804,1.462,3.196,5.002c1.392,3.54,4.898,13.863,5.116,15.396
										C382.915,298.278,382.033,301.136,379.439,302.893z"/>
									<g>
										<path style="fill:none;stroke:#7F4040;stroke-linecap:round;stroke-miterlimit:10;" d="M338.956,341.008
											c0,0-4.728-25.941-1.406-33.864s23.002-15.463,23.002-15.463l0.895-6.217"/>
										<path style="fill:none;stroke:#7F4040;stroke-linecap:round;stroke-miterlimit:10;" d="M375.12,294.492
											c0,0-4.856-16.229-8.562-16.996c-3.706-0.767-10.515,7.36-10.817,9.431c-0.301,2.071,0,6.811,0,6.811"/>
										<path style="fill:none;stroke:#7F4040;stroke-linecap:round;stroke-miterlimit:10;" d="M367.274,277.82
											c0,0,1.137-1.474,3.246-1.474c2.109,0,8.051,15.91,8.051,15.91"/>
										<path style="fill:none;stroke:#7F4040;stroke-linecap:round;stroke-miterlimit:10;" d="M371.395,276.942
											c0,0,2.639-1.065,3.981,0s6.709,16.272,7.028,17.934c0.319,1.661,1.725,6.07-6.453,10.223"/>
									</g>
								</g>
							</g>
							<g>
								<path style="fill:#FFFFFF;" d="M333.898,333.969l37.497-5.549l32.912,79.287c0,0,5.886,24.072-28.62,26.847
									c-34.506,2.775-39.321-14.404-39.321-14.404L333.898,333.969z"/>
								<g>
									<path style="fill:#2E4ECC;" d="M345.086,375.945h-0.477c-2.037,0-3.688-1.651-3.688-3.688v-15.349
										c0-2.037,1.651-3.688,3.688-3.688h0.477c2.037,0,3.688,1.651,3.688,3.688v15.349
										C348.775,374.293,347.123,375.945,345.086,375.945z"/>
									<path style="fill:#2E4ECC;" d="M370.933,386.177h-0.477c-2.037,0-3.688-1.651-3.688-3.688v-15.349
										c0-2.037,1.651-3.688,3.688-3.688h0.477c2.037,0,3.688,1.651,3.688,3.688v15.349
										C374.622,384.525,372.97,386.177,370.933,386.177z"/>
									<path style="fill:#2E4ECC;" d="M355.431,411.191h-0.477c-2.037,0-3.688-1.651-3.688-3.688v-15.35
										c0-2.037,1.651-3.688,3.688-3.688h0.477c2.037,0,3.688,1.651,3.688,3.688v15.35
										C359.12,409.539,357.468,411.191,355.431,411.191z"/>
									<path style="fill:#2E4ECC;" d="M382.967,421.035h-0.477c-2.037,0-3.688-1.651-3.688-3.688v-15.35
										c0-2.037,1.651-3.688,3.688-3.688h0.477c2.037,0,3.688,1.651,3.688,3.688v15.35
										C386.656,419.384,385.004,421.035,382.967,421.035z"/>
									<path style="fill:#2E4ECC;" d="M375.023,337.159c-0.087,0.324-0.147,0.658-0.147,1.009v14.873
										c0,2.169,1.758,3.927,3.927,3.927c1.554,0,2.885-0.911,3.522-2.22L375.023,337.159z"/>
									<path style="fill:#2E4ECC;" d="M392.908,380.245v7.743c0,2.169,1.758,3.927,3.927,3.927c0.301,0,0.592-0.041,0.874-0.105
										L392.908,380.245z"/>
									<path style="fill:#2E4ECC;" d="M400.761,407.626v14.873c0,0.368,0.067,0.718,0.162,1.056
										c5.433-7.448,3.384-15.849,3.384-15.849l-1.464-3.527C401.609,404.841,400.761,406.128,400.761,407.626z"/>
									<path style="fill:#2E4ECC;" d="M371.309,434.794v-6.984c0-2.169-1.758-3.927-3.927-3.927c-2.169,0-3.927,1.758-3.927,3.927
										v6.87C365.857,434.847,368.473,434.89,371.309,434.794z"/>
									<path style="fill:#2E4ECC;" d="M336.185,406.297c-0.074,0-0.142,0.018-0.215,0.022l0.396,13.831
										c0,0,0.742,2.611,3.677,5.631c0.039-0.223,0.069-0.45,0.069-0.684v-14.873
										C340.112,408.055,338.354,406.297,336.185,406.297z"/>
								</g>
								<path style="fill:none;stroke:#0F110E;stroke-miterlimit:10;" d="M333.898,333.969l37.497-5.549l32.912,79.287
									c0,0,5.886,24.072-28.62,26.847c-34.506,2.775-39.321-14.404-39.321-14.404L333.898,333.969z"/>
								<g>
									<path style="fill:#6FBBEF;stroke:#0F110E;stroke-miterlimit:10;" d="M371.395,328.419l-37.497,5.549l0.454,15.842
										c8.932-1.167,32.303-4.256,43.539-5.742L371.395,328.419z"/>
									<g>
										<path style="fill:#0F110E;" d="M338.342,349.288c0.343-0.045,0.696-0.091,1.056-0.139l-2.159-15.675l-1.053,0.156
											L338.342,349.288z"/>
										<path style="fill:#0F110E;" d="M343.355,332.569l-1.055,0.156l3.35,15.601c0.35-0.046,0.703-0.093,1.059-0.14
											L343.355,332.569z"/>
										<path style="fill:#0F110E;" d="M349.832,331.61l-1.058,0.157l3.768,15.651c0.353-0.047,0.707-0.093,1.062-0.14
											L349.832,331.61z"/>
										<path style="fill:#0F110E;" d="M367.382,329.013l5.548,15.711c0.366-0.048,0.724-0.096,1.078-0.142l-5.553-15.728
											L367.382,329.013z"/>
										<path style="fill:#0F110E;" d="M355.193,330.817l4.689,15.632c0.358-0.047,0.714-0.094,1.07-0.141l-4.694-15.648
											L355.193,330.817z"/>
										<path style="fill:#0F110E;" d="M362.325,329.761l-1.068,0.158l5.012,15.686c0.361-0.048,0.718-0.095,1.073-0.142
											L362.325,329.761z"/>
									</g>
								</g>
							</g>
						</g>
						<g>
							<path style="fill:#A66957;" d="M299.387,416.344c0,0,7.977-0.691,14.741-2.29s15.261-4.949,15.261-4.949l-0.694,30.902
								h-34.858L299.387,416.344z"/>
							<g>
								<g>
									<path style="fill:#FFFFFF;" d="M185.449,401.43c-7.006,17.905-6.474,39.439,39.078,41.657
										c45.552,2.218,75.626,0.181,75.626,0.181l2.298-37.245c0,0-59.657-13.669-67.75-14.825L185.449,401.43z"/>
									<g>
										<path style="fill:#2E4ECC;" d="M233.397,428.911v-0.477c0-2.037,1.651-3.688,3.688-3.688h15.35
											c2.037,0,3.688,1.651,3.688,3.688v0.477c0,2.037-1.651,3.688-3.688,3.688h-15.35
											C235.048,432.6,233.397,430.948,233.397,428.911z"/>
										<path style="fill:#2E4ECC;" d="M271.048,422.131v-0.477c0-2.037,1.651-3.688,3.688-3.688h15.35
											c2.037,0,3.688,1.651,3.688,3.688v0.477c0,2.037-1.651,3.688-3.688,3.688h-15.35
											C272.699,425.82,271.048,424.168,271.048,422.131z"/>
										<path style="fill:#2E4ECC;" d="M207.648,404.864v-0.477c0-2.037,1.651-3.688,3.688-3.688h15.35
											c2.037,0,3.688,1.651,3.688,3.688v0.477c0,2.037-1.651,3.688-3.688,3.688h-15.35
											C209.3,408.552,207.648,406.901,207.648,404.864z"/>
										<path style="fill:#2E4ECC;" d="M185.797,420.467v-0.477c0-2.037,1.651-3.688,3.688-3.688h15.35
											c2.037,0,3.688,1.651,3.688,3.688v0.477c0,2.037-1.651,3.688-3.688,3.688h-15.35
											C187.449,424.155,185.797,422.504,185.797,420.467z"/>
										<path style="fill:#2E4ECC;" d="M257.112,396.772c-2.169,0-3.927,1.758-3.927,3.927c0,2.169,1.758,3.927,3.927,3.927
											h14.873c2.169,0,3.927-1.758,3.927-3.927c0-0.242-0.029-0.477-0.071-0.707c-4.737-1.064-9.679-2.167-14.443-3.219H257.112
											z"/>
										<path style="fill:#2E4ECC;" d="M274.16,439.16h-14.873c-2.169,0-3.927,1.758-3.927,3.927c0,0.334,0.009,0.458,0.087,0.768
											c8.589,0.113,16.25-0.029,22.587-0.127c0.076-0.304,0.052-0.313,0.052-0.641
											C278.086,440.918,276.328,439.16,274.16,439.16z"/>
										<path style="fill:#2E4ECC;" d="M217.083,437.811H202.21c-0.928,0-1.77,0.335-2.442,0.874
											c5.426,2.043,12.343,3.499,21.061,4.168c0.106-0.356,0.18-0.725,0.18-1.115
											C221.01,439.569,219.252,437.811,217.083,437.811z"/>
									</g>
									<path style="fill:none;stroke:#0F110E;stroke-linecap:round;stroke-miterlimit:10;" d="M185.449,400.871
										c-7.006,17.905-6.474,39.998,39.078,42.216c13.734,0.669,25.906,0.12,36.426,0.188c24.372,0.157,39.2-0.007,39.2-0.007
										l2.298-37.245c0,0-59.657-13.669-67.75-14.825"/>
								</g>
								<g>
									<path style="fill:#92CDFE;stroke:#0F110E;stroke-linecap:round;stroke-miterlimit:10;" d="M282.411,443.087
										c11.343-0.249,17.741,0.181,17.741,0.181l2.298-37.245c0,0-6.848-1.569-16.214-3.688L282.411,443.087z"/>
									<g>
										<polygon style="fill:#0F110E;" points="300.68,434.715 283.26,434.715 283.162,435.779 300.615,435.779 										"/>
										<polygon style="fill:#0F110E;" points="283.815,428.673 283.718,429.737 300.985,429.781 301.05,428.718 										"/>
										<polygon style="fill:#0F110E;" points="285.705,408.12 302.16,410.732 302.226,409.665 285.802,407.058 										"/>
										<polygon style="fill:#0F110E;" points="301.882,415.24 285.181,413.823 285.083,414.883 301.816,416.302 										"/>
										<polygon style="fill:#0F110E;" points="284.42,422.097 301.418,422.751 301.484,421.688 284.518,421.035 										"/>
									</g>
								</g>
							</g>
						</g>
					</g>
				</g>
			</g>
			<g>
				<g>
					<g>
						<path style="fill:#2E4ECC;stroke:#0F110E;stroke-miterlimit:10;" d="M172.605,419.463H50.626
							c-1.238,0-2.241-1.003-2.241-2.241v-0.472c0-1.237,1.003-2.241,2.241-2.241h121.979c1.238,0,2.241,1.003,2.241,2.241v0.472
							C174.845,418.459,173.842,419.463,172.605,419.463z"/>
						<path style="fill:#2E4ECC;stroke:#0F110E;stroke-miterlimit:10;" d="M172.605,442.674H50.626
							c-1.238,0-2.241-1.003-2.241-2.241v-0.472c0-1.237,1.003-2.241,2.241-2.241h121.979c1.238,0,2.241,1.003,2.241,2.241v0.472
							C174.845,441.671,173.842,442.674,172.605,442.674z"/>
						<path style="fill:#FFFFFF;stroke:#0F110E;stroke-linecap:round;stroke-linejoin:round;stroke-miterlimit:10;" d="
							M172.263,417.109H50.386c0,0,3.362,5.369,0.603,23.088h50.199h20.272h50.199C168.901,422.479,172.263,417.109,172.263,417.109
							z"/>
						<g>
							
								<line style="fill:none;stroke:#92CDFE;stroke-linecap:round;stroke-linejoin:round;stroke-miterlimit:10;" x1="54.678" y1="421.325" x2="167.432" y2="421.325"/>
							
								<line style="fill:none;stroke:#92CDFE;stroke-linecap:round;stroke-linejoin:round;stroke-miterlimit:10;" x1="56.402" y1="425.226" x2="164.185" y2="425.226"/>
							
								<line style="fill:none;stroke:#92CDFE;stroke-linecap:round;stroke-linejoin:round;stroke-miterlimit:10;" x1="54.678" y1="429.127" x2="167.432" y2="429.127"/>
							
								<line style="fill:none;stroke:#92CDFE;stroke-linecap:round;stroke-linejoin:round;stroke-miterlimit:10;" x1="55.367" y1="433.028" x2="166.689" y2="433.028"/>
							
								<line style="fill:none;stroke:#92CDFE;stroke-linecap:round;stroke-linejoin:round;stroke-miterlimit:10;" x1="53.816" y1="436.93" x2="167.432" y2="436.93"/>
						</g>
						<g>
							<polygon style="fill:#EB3341;" points="68.751,428.653 77.543,428.653 74.699,435.099 72.177,431.876 66.94,435.099 							
								"/>
							<polygon style="fill:#2E4ECC;" points="87.629,424.452 96.422,424.452 93.577,430.898 91.056,427.675 85.819,430.898 							
								"/>
						</g>
					</g>
					<g>
						<path style="fill:#EB3341;stroke:#0F110E;stroke-miterlimit:10;" d="M163.746,391.075H60.314c-0.73,0-1.322-0.592-1.322-1.322
							v-2.352c0-0.73,0.592-1.322,1.322-1.322h103.431c0.73,0,1.322,0.592,1.322,1.322v2.352
							C165.067,390.483,164.476,391.075,163.746,391.075z"/>
						<path style="fill:#EB3341;stroke:#0F110E;stroke-miterlimit:10;" d="M163.746,414.486H60.314c-0.73,0-1.322-0.592-1.322-1.322
							v-2.352c0-0.73,0.592-1.322,1.322-1.322h103.431c0.73,0,1.322,0.592,1.322,1.322v2.352
							C165.067,413.894,164.476,414.486,163.746,414.486z"/>
						<path style="fill:#FFFFFF;stroke:#0F110E;stroke-linecap:round;stroke-linejoin:round;stroke-miterlimit:10;" d="
							M162.901,388.702H60.67c0,0,2.82,5.415,0.506,23.286h42.107h17.004h42.107C160.081,394.117,162.901,388.702,162.901,388.702z"
							/>
						<g>
							
								<line style="fill:none;stroke:#92CDFE;stroke-linecap:round;stroke-linejoin:round;stroke-miterlimit:10;" x1="64.271" y1="392.954" x2="158.849" y2="392.954"/>
							
								<line style="fill:none;stroke:#92CDFE;stroke-linecap:round;stroke-linejoin:round;stroke-miterlimit:10;" x1="65.717" y1="396.888" x2="156.126" y2="396.888"/>
							
								<line style="fill:none;stroke:#92CDFE;stroke-linecap:round;stroke-linejoin:round;stroke-miterlimit:10;" x1="64.271" y1="400.823" x2="158.849" y2="400.823"/>
							
								<line style="fill:none;stroke:#92CDFE;stroke-linecap:round;stroke-linejoin:round;stroke-miterlimit:10;" x1="64.849" y1="404.758" x2="158.226" y2="404.758"/>
							
								<line style="fill:none;stroke:#92CDFE;stroke-linecap:round;stroke-linejoin:round;stroke-miterlimit:10;" x1="63.548" y1="408.692" x2="158.849" y2="408.692"/>
						</g>
						<g>
							<polygon style="fill:#EB3341;" points="139.953,401.507 147.328,401.507 144.942,408.008 142.827,404.758 138.434,408.008 
															"/>
						</g>
					</g>
				</g>
				<g>
					<rect x="269.252" y="436.926" style="fill:#161522;" width="61.801" height="6.161"/>
					<g>
						<path style="fill:#161522;" d="M448.64,443.087H327.567c-2.525,0-4.572-2.047-4.572-4.572v-78.284
							c0-2.525,2.047-4.572,4.572-4.572H448.64c2.525,0,4.572,2.047,4.572,4.572v78.283
							C453.212,441.04,451.165,443.087,448.64,443.087z"/>
						
							<ellipse transform="matrix(0.9925 -0.1225 0.1225 0.9925 -46.0053 50.4087)" style="fill:none;stroke:#FFFFFF;stroke-miterlimit:10;" cx="386.882" cy="399.284" rx="11.335" ry="11.335"/>
					</g>
				</g>
			</g>
			<g>
				<g>
					<path style="fill:#161522;" d="M27.231,444.025c3.999,0,7.999,0,11.998,0c10.786,0,21.573,0,32.359,0
						c15.992,0,31.984,0,47.976,0c19.511,0,39.022,0,58.532,0c21.295,0,42.59,0,63.886,0c21.642,0,43.284,0,64.926,0
						c20.042,0,40.083,0,60.125,0c16.997,0,33.994,0,50.991,0c12.22,0,24.44,0,36.66,0c5.774,0,11.554,0.078,17.328,0
						c0.253-0.003,0.505,0,0.758,0c0.965,0,0.967-1.5,0-1.5c-3.999,0-7.999,0-11.998,0c-10.786,0-21.573,0-32.359,0
						c-15.992,0-31.984,0-47.976,0c-19.511,0-39.021,0-58.532,0c-21.295,0-42.59,0-63.886,0c-21.642,0-43.284,0-64.926,0
						c-20.042,0-40.083,0-60.124,0c-16.997,0-33.994,0-50.991,0c-12.22,0-24.44,0-36.66,0c-5.774,0-11.554-0.079-17.328,0
						c-0.253,0.003-0.505,0-0.758,0C26.266,442.525,26.264,444.025,27.231,444.025L27.231,444.025z"/>
				</g>
			</g>
		</g>
	</g>
</g>
</svg>
